<?xml version="1.0" encoding="utf-8"?>
<!-- Generator: Adobe Illustrator 16.0.0, SVG Export Plug-In . SVG Version: 6.00 Build 0)  -->
<!DOCTYPE svg PUBLIC "-//W3C//DTD SVG 1.1//EN" "http://www.w3.org/Graphics/SVG/1.1/DTD/svg11.dtd">
<svg version="1.1" id="Layer_1" xmlns="http://www.w3.org/2000/svg" xmlns:xlink="http://www.w3.org/1999/xlink" x="0px" y="0px"
	 width="335.894px" height="71.168px" viewBox="0 0 335.894 71.168" enable-background="new 0 0 335.894 71.168"
	 xml:space="preserve">
<g>
	<path fill="#0F75BC" stroke="#FFFFFF" stroke-miterlimit="10" d="M56.071,23.189c-1.458,0-2.652-0.433-3.582-1.299
		c-0.93-0.866-1.395-1.928-1.395-3.186c0-1.294,0.465-2.352,1.395-3.172s2.124-1.23,3.582-1.23c1.477,0,2.675,0.41,3.596,1.23
		c0.92,0.82,1.381,1.878,1.381,3.172c0,1.313-0.46,2.388-1.381,3.227C58.746,22.77,57.547,23.189,56.071,23.189z M60.336,55.619
		h-8.641v-28h8.641V55.619z"/>
	<path fill="#0F75BC" stroke="#FFFFFF" stroke-miterlimit="10" d="M90.346,55.619H65.217v-3.582L79.271,33.99h-12.66v-6.371h23.625
		v4.266L76.92,49.248h13.426V55.619z"/>
	<path fill="#0F75BC" stroke="#FFFFFF" stroke-miterlimit="10" d="M120.71,44.08h-18.266c0.292,4.064,2.853,6.098,7.684,6.098
		c3.081,0,5.788-0.729,8.121-2.188v6.234c-2.589,1.385-5.952,2.078-10.09,2.078c-4.521,0-8.03-1.254-10.527-3.76
		c-2.498-2.507-3.746-6.002-3.746-10.486c0-4.649,1.349-8.331,4.047-11.047c2.698-2.716,6.016-4.074,9.953-4.074
		c4.083,0,7.241,1.212,9.475,3.637c2.233,2.425,3.35,5.715,3.35,9.872V44.08z M112.699,38.775c0-4.011-1.623-6.016-4.867-6.016
		c-1.386,0-2.584,0.574-3.596,1.723s-1.627,2.58-1.846,4.293H112.699z"/>
</g>
<path fill="#0F75BC" stroke="#FFFFFF" stroke-linecap="square" stroke-linejoin="bevel" stroke-miterlimit="10" d="M32.559,44.219
	c-0.583-6.584-8.74-9.919-12.007-11.756c-3.316-1.864-9.355-6.632-10.073-11.616c-0.397-2.754-0.845-6.371,0.982-10.496
	c1.942-4.385,5.15-6.677,8.455-7.809c7.728-2.646,19.345-3.266,26.112,1.465c4.292,3,0.667,11.211-0.042,10.795
	c-2.193-1.289-5.256-2.824-10.958-3.583c-4.375-0.583-9.03,1.288-9.917,3.458c-2.354,5.765,6.837,8.685,8.958,9.585
	c7.75,3.292,14.463,7.272,14.2,15.255c-0.22,6.681-1.7,10.418-6.492,13.376c-3.941,2.434-8.405,3.103-10.167,3.1
	c-5.022-0.008-2.466-0.024-5.926,0c-1.124,0.008-0.212-0.535,2.239-2.338C32.58,50.232,32.629,45.008,32.559,44.219z"/>
<path fill="#FFFFFF" d="M29.059,44.885c0.062-2.232-1.87-4.589-5.688-6.875c-3.167-1.895-6.806-3.53-9.553-6.076
	c-2.558-2.371-1.259-0.923-4.343-4.736c-1.104,2.313-3.876,2.849-5.377,3.5c-1.82,0.79-3.461,2.56-3.977,4.916
	c-0.875,4,3.213,1.331,4.646,2.146c5.563,3.168-3.458,2.376-3.375,4.105c1.5,1.771,4.002,0.27,4.729,0
	c0.565-0.211,2.436-0.623,3.406-0.646c1.688-0.041,3.013,1.483,2.281,1.406c-4.438-0.469-6.792,2.822-6.667,6.635
	c0.134,4.098,5.437,5.193,4.167,5.188c-5.25-0.02-4.662,2.045-4.396,2.043c7.125-0.064,3.376,0,9.25,0
	c2.25,0,4.605,0.137,7.25-1.125C23.458,54.389,28.934,49.375,29.059,44.885z"/>
<g>
	<path fill="#FFFFFF" d="M126.104,55.23v-9.375c1.699,1.426,3.545,2.494,5.537,3.207c1.992,0.714,4.003,1.07,6.035,1.07
		c1.191,0,2.231-0.107,3.12-0.322c0.889-0.215,1.63-0.514,2.227-0.895c0.596-0.381,1.04-0.83,1.333-1.348
		c0.293-0.517,0.439-1.078,0.439-1.684c0-0.82-0.234-1.553-0.703-2.197s-1.109-1.24-1.919-1.787
		c-0.811-0.547-1.772-1.074-2.886-1.582s-2.314-1.025-3.604-1.553c-3.281-1.367-5.728-3.037-7.339-5.01
		c-1.611-1.973-2.417-4.355-2.417-7.148c0-2.187,0.439-4.067,1.318-5.64c0.879-1.572,2.075-2.866,3.589-3.882
		c1.513-1.015,3.267-1.762,5.259-2.241c1.992-0.479,4.102-0.718,6.328-0.718c2.187,0,4.126,0.132,5.815,0.396
		c1.689,0.264,3.247,0.669,4.673,1.216v8.76c-0.703-0.488-1.47-0.918-2.3-1.289c-0.831-0.371-1.685-0.678-2.563-0.923
		c-0.879-0.244-1.753-0.425-2.622-0.542c-0.869-0.117-1.695-0.176-2.476-0.176c-1.074,0-2.051,0.103-2.93,0.308
		s-1.622,0.494-2.227,0.864c-0.605,0.371-1.074,0.816-1.406,1.333c-0.333,0.518-0.498,1.099-0.498,1.743
		c0,0.703,0.186,1.333,0.557,1.89c0.371,0.557,0.898,1.084,1.582,1.582c0.684,0.498,1.513,0.986,2.49,1.465
		c0.977,0.479,2.08,0.972,3.311,1.479c1.68,0.703,3.188,1.45,4.526,2.241c1.337,0.791,2.485,1.685,3.442,2.681
		c0.957,0.997,1.689,2.134,2.197,3.413c0.508,1.279,0.762,2.77,0.762,4.469c0,2.344-0.444,4.311-1.333,5.902
		c-0.889,1.593-2.095,2.882-3.618,3.867c-1.523,0.986-3.296,1.695-5.317,2.125c-2.021,0.429-4.156,0.645-6.401,0.645
		c-2.305,0-4.497-0.195-6.577-0.586S127.627,56.012,126.104,55.23z"/>
	<path fill="#FFFFFF" d="M188.5,69.721h-8.64V52.986h-0.109c-1.951,3.025-4.822,4.539-8.613,4.539c-3.519,0-6.349-1.227-8.49-3.678
		c-2.142-2.452-3.213-5.893-3.213-10.322c0-4.667,1.176-8.395,3.527-11.184s5.414-4.184,9.188-4.184
		c3.427,0,5.961,1.313,7.602,3.938h0.109v-3.254h8.64V69.721z M180.024,43.471v-2.242c0-1.823-0.529-3.354-1.586-4.594
		c-1.058-1.239-2.416-1.859-4.074-1.859c-1.914,0-3.418,0.752-4.512,2.256c-1.094,1.504-1.641,3.586-1.641,6.249
		c0,2.388,0.533,4.256,1.6,5.605c1.066,1.349,2.456,2.023,4.17,2.023c1.823,0,3.286-0.684,4.389-2.051
		C179.473,47.49,180.024,45.694,180.024,43.471z"/>
	<path fill="#FFFFFF" d="M222.94,56.842h-8.613v-4.266h-0.137c-2.133,3.299-4.986,4.949-8.559,4.949
		c-6.49,0-9.734-3.929-9.734-11.785V28.841h8.613v16.133c0,3.955,1.567,5.934,4.703,5.934c1.549,0,2.789-0.543,3.719-1.627
		c0.93-1.085,1.395-2.557,1.395-4.416V28.841h8.613V56.842z"/>
	<path fill="#FFFFFF" d="M235.149,24.412c-1.459,0-2.652-0.433-3.582-1.299c-0.93-0.866-1.395-1.928-1.395-3.186
		c0-1.294,0.465-2.352,1.395-3.172s2.123-1.23,3.582-1.23c1.477,0,2.674,0.41,3.596,1.23c0.92,0.82,1.381,1.878,1.381,3.172
		c0,1.313-0.461,2.388-1.381,3.227C237.823,23.993,236.625,24.412,235.149,24.412z M239.415,56.842h-8.641v-28h8.641V56.842z"/>
	<path fill="#FFFFFF" d="M265.512,36.634c-1.039-0.565-2.251-0.848-3.637-0.848c-1.877,0-3.345,0.688-4.402,2.065
		c-1.057,1.376-1.586,3.249-1.586,5.619v13.371h-8.641v-28h8.641v5.195h0.109c1.367-3.792,3.828-5.688,7.383-5.688
		c0.912,0,1.623,0.109,2.133,0.328V36.634z"/>
	<path fill="#FFFFFF" d="M288.358,36.634c-1.039-0.565-2.252-0.848-3.637-0.848c-1.878,0-3.346,0.688-4.402,2.065
		c-1.058,1.376-1.586,3.249-1.586,5.619v13.371h-8.641v-28h8.641v5.195h0.109c1.367-3.792,3.828-5.688,7.383-5.688
		c0.911,0,1.622,0.109,2.133,0.328V36.634z"/>
	<path fill="#FFFFFF" d="M317.356,45.303H299.09c0.291,4.064,2.853,6.098,7.684,6.098c3.08,0,5.787-0.729,8.121-2.188v6.234
		c-2.589,1.385-5.952,2.078-10.09,2.078c-4.521,0-8.03-1.254-10.527-3.76c-2.498-2.507-3.746-6.002-3.746-10.486
		c0-4.648,1.349-8.331,4.047-11.047c2.697-2.716,6.016-4.074,9.953-4.074c4.083,0,7.241,1.212,9.475,3.637
		c2.232,2.425,3.35,5.715,3.35,9.872V45.303z M309.344,39.998c0-4.011-1.623-6.016-4.867-6.016c-1.386,0-2.584,0.574-3.596,1.723
		s-1.627,2.58-1.846,4.293H309.344z"/>
	<path fill="#FFFFFF" d="M331.697,56.842h-8.641V15.388h8.641V56.842z"/>
</g>
<g>
</g>
<g>
</g>
<g>
</g>
<g>
</g>
<g>
</g>
<g>
</g>
</svg>
