<?xml version="1.0" encoding="utf-8"?>
<!-- Generator: Adobe Illustrator 16.0.0, SVG Export Plug-In . SVG Version: 6.00 Build 0)  -->
<!DOCTYPE svg PUBLIC "-//W3C//DTD SVG 1.1//EN" "http://www.w3.org/Graphics/SVG/1.1/DTD/svg11.dtd">
<svg version="1.1" id="Layer_1" xmlns="http://www.w3.org/2000/svg" xmlns:xlink="http://www.w3.org/1999/xlink" x="0px" y="0px"
	 width="48.776px" height="56.494px" viewBox="0 0 48.776 56.494" enable-background="new 0 0 48.776 56.494" xml:space="preserve">
<path fill="#0F75BC" stroke="#FFFFFF" stroke-linecap="square" stroke-linejoin="bevel" stroke-miterlimit="10" d="M32.559,44.219
	c-0.583-6.584-8.74-9.919-12.007-11.756c-3.316-1.864-9.355-6.632-10.073-11.616c-0.397-2.754-0.845-6.371,0.982-10.496
	c1.942-4.385,5.15-6.677,8.455-7.809c7.728-2.646,19.345-3.266,26.112,1.465c4.292,3,0.667,11.211-0.042,10.795
	c-2.193-1.289-5.256-2.824-10.958-3.583c-4.375-0.583-9.03,1.288-9.917,3.458c-2.354,5.765,6.837,8.685,8.958,9.585
	c7.75,3.292,14.463,7.272,14.2,15.255c-0.22,6.681-1.7,10.418-6.492,13.376c-3.941,2.434-8.405,3.103-10.167,3.1
	c-5.022-0.008-2.466-0.024-5.926,0c-1.124,0.008-0.212-0.535,2.239-2.338C32.58,50.232,32.629,45.008,32.559,44.219z"/>
<path fill="#FFFFFF" d="M29.059,44.885c0.062-2.232-1.87-4.589-5.688-6.875c-3.167-1.895-6.806-3.53-9.553-6.076
	c-2.558-2.371-1.259-0.923-4.343-4.736c-1.104,2.313-3.876,2.849-5.377,3.5c-1.82,0.79-3.461,2.56-3.977,4.916
	c-0.875,4,3.213,1.331,4.646,2.146c5.563,3.168-3.458,2.376-3.375,4.105c1.5,1.771,4.002,0.27,4.729,0
	c0.565-0.211,2.436-0.623,3.406-0.646c1.688-0.041,3.013,1.483,2.281,1.406c-4.438-0.469-6.792,2.822-6.667,6.635
	c0.134,4.098,5.437,5.193,4.167,5.188c-5.25-0.02-4.662,2.045-4.396,2.043c7.125-0.064,3.376,0,9.25,0
	c2.25,0,4.605,0.137,7.25-1.125C23.458,54.389,28.934,49.375,29.059,44.885z"/>
<g>
</g>
<g>
</g>
<g>
</g>
<g>
</g>
<g>
</g>
<g>
</g>
</svg>
